<?xml version="1.0" encoding="UTF-8" standalone="no"?><!DOCTYPE svg PUBLIC "-//W3C//DTD SVG 1.1//EN" "http://www.w3.org/Graphics/SVG/1.1/DTD/svg11.dtd"><svg width="100%" height="100%" viewBox="0 0 84 20" version="1.1" xmlns="http://www.w3.org/2000/svg" xmlns:xlink="http://www.w3.org/1999/xlink" xml:space="preserve" xmlns:serif="http://www.serif.com/" style="fill-rule:evenodd;clip-rule:evenodd;stroke-linejoin:round;stroke-miterlimit:2;" fill="#eaf0f7"><g id="Page-1"><g id="plus-lines"><path id="Combined-Shape" d="M78,7l0,-3l-2,0l0,3l-3,0l0,2l3,0l0,6l2,0l0,-6l3,0l0,-2l-3,0Zm-48,0l0,-3l-2,0l0,3l-3,0l0,2l3,0l0,6l2,0l0,-6l3,0l0,-2l-3,0Zm-20,-7l2,0l0,20l-2,0l0,-20Zm6,0l4,0l0,20l-4,0l0,-20Zm-14,0l4,0l0,20l-4,0l0,-20Zm50,0l2,0l0,20l-2,0l0,-20Zm-14,0l2,0l0,20l-2,0l0,-20Zm28,0l2,0l0,20l-2,0l0,-20Zm-8,0l6,0l0,20l-6,0l0,-20Zm-16,0l6,0l0,20l-6,0l0,-20Z"/></g></g></svg>